<svg width="133.36mm" height="94.325mm" version="1.1" viewBox="0 0 133.36 94.325" xml:space="preserve" xmlns="http://www.w3.org/2000/svg"><g transform="translate(-237.82 -50.958)"><path d="m360.15 50.958c-1.9306 0-4.0568 0.45231-6.3784 1.3565-2.2972 0.9042-4.6674 2.1994-7.1112 3.8856-2.4438 1.6618-4.6558 3.519-6.6353 5.5718-2.2727 2.346-4.3132 4.9608-6.1216 7.8445-0.20493 0.32401-0.4028 0.64822-0.59738 0.97255l2.5549-18.981h-10.473l-3.6721 34.072-3.7068-34.072h-10.439l4.0302 29.945-2.0376-4.3667c-5.3835-11.495-9.4873-18.434-12.311-20.817-2.0298-1.743-4.1593-2.6148-6.3877-2.6148-2.3608 0-4.3021 0.77221-5.8244 2.3167-0.7281 0.70603-1.2025 1.4342-1.4232 2.1844-0.19857 0.7281-0.30863 2.0408-0.33073 3.9383-0.0221 1.7871-0.33137 3.6188-0.92708 5.4942-0.57365 1.8533-1.7207 4.6554-3.4416 8.4062l-2.82 6.18c-0.3426-1.6908-1.0253-3.2647-2.0521-4.7206-1.518-2.2079-3.392-3.8066-5.6229-4.7956-2.2309-0.98897-5.7502-1.9662-10.557-2.9321-2.8749-0.57498-4.7262-1.2536-5.5542-2.0355-0.80496-0.78197-1.2077-1.7364-1.2077-2.8634 0-2.8289 2.1853-4.2432 6.5552-4.2432 4.0939 0 6.7733 1.8629 8.0383 5.5888l9.3834-3.1399c-2.6449-7.3827-8.5904-11.074-17.836-11.074-5.2208 0-9.3605 1.4375-12.419 4.3124-3.0359 2.8749-4.5537 6.4052-4.5537 10.591 0 4.1399 1.2763 7.2907 3.8292 9.4527 2.5529 2.1389 6.831 3.8291 12.834 5.071 3.2199 0.66698 5.3931 1.3799 6.52 2.1389 1.127 0.75897 1.6903 1.8286 1.6903 3.2086 0 1.357-0.62098 2.5302-1.8629 3.5192-1.242 0.96597-3.1276 1.4485-5.6575 1.4485-5.2438 0-8.4407-2.1964-9.5906-6.5893l-10.212 2.3115c1.081 4.3239 3.3117 7.5899 6.6926 9.7979 3.4039 2.1849 7.5208 3.2773 12.351 3.2773 1.6768 0.4854 15.235 0.11834 18.809 0.11834 6.2881 0 9.432-1.3127 9.432-3.9383 0-1.1914-0.67313-1.9862-2.019-2.3833-1.037-0.33095-1.6545-0.56215-1.8531-0.69453-0.17646-0.15445-0.26459-0.47476-0.26459-0.96015 0-0.52953 0.13212-1.081 0.39688-1.6547 0.26476-0.57365 0.57354-0.97051 0.92656-1.1911 0.57365-0.35302 2.3278-0.52968 5.2622-0.52968 3.486 0 6.189 0.13211 8.1086 0.39688 1.7872 0.26476 2.6804 1.1366 2.6804 2.6148 0 0.83841-0.51847 1.434-1.5555 1.787-0.92666 0.30889-1.5662 0.65122-1.9193 1.0263-0.33096 0.35301-0.49661 0.86048-0.49661 1.5224 0 0.86048 0.31979 1.5991 0.95963 2.2169 0.66191 0.59571 1.5447 0.9931 2.6479 1.1917 2.4049 0.41921 6.1003 0.6289 11.087 0.6289 4.4114 0 18.283 0.32488 20.231-0.38033v-5.2e-4h0.00155l0.90434-6.719c0.08282 0.13936 0.16736 0.27792 0.25528 0.41548 1.5396 2.3705 3.6903 4.2399 6.4518 5.6084 2.7859 1.3441 5.853 2.0164 9.201 2.0164 0.97751 0 2.0526-0.12253 3.2256-0.36691 0.1484-0.03553 0.29621-0.07493 0.44442-0.11162-0.11193 1.3445-0.18913 2.7423-0.18913 3.4933 0 2.4742 0.36629 5.5617 1.0986 9.263 1.2668 6.4328 2.9888 11.826 5.1661 16.181 1.0688-0.53442 2.4546-1.0884 4.1568-1.6624 1.5637-0.51463 2.8798-0.92059 3.9486-1.2175-0.33649-2.5929-0.50488-5.2648-0.50488-8.016 0-5.2452 0.41563-10.411 1.247-15.498 0.5358-3.3296 2.3312-8.7632 3.5471-12.229 0.47153-1.0251 0.86372-2.084 1.1731-3.1786 0.31769-1.1241 0.47645-2.1263 0.47645-3.006 0-0.80644-0.22003-1.2097-0.6599-1.2097-0.36657 0-1.2707 0.45231-2.7125 1.3565-0.31769 0.24438-0.91651 0.61092-1.7963 1.0997l-1.2826 0.76946c-3.0792 1.7351-5.8287 3.067-8.2481 3.9956-2.3949 0.92864-4.2276 1.3932-5.4984 1.3932-1.2463 0-2.3827-0.72083-3.4091-2.1627-1.0264-1.4663-1.5394-3.0917-1.5394-4.8757v-0.91622l13.38 0.07338c1.9795 0 4.1547-1.0756 6.5252-3.2262 2.3949-2.3216 3.592-3.9955 3.592-5.0219 0-1.0997-1.0751-1.6495-3.2256-1.6495h-19.575c0.26881-1.7106 0.79412-3.4453 1.5761-5.2048 0.78201-1.784 1.7841-3.5314 3.006-5.2421 1.2952-1.8328 3.0544-3.69 5.2782-5.5718 2.2238-1.8817 3.7635-2.8226 4.6188-2.8226 0.53763 0 0.80667 0.45179 0.80667 1.356 0 1.0997-0.29354 2.6271-0.88005 4.5822-0.58651 1.955-1.2706 3.6535-2.0526 5.0953-0.80645 1.3685-1.6498 2.4436-2.5296 3.2256-0.80645 0.87976-1.2097 1.5276-1.2097 1.943 0 0.70869 0.72134 1.063 2.1632 1.063s3.1765-0.4033 5.2048-1.2097c1.6862-0.7087 3.2014-1.5515 4.5455-2.529 1.3441-0.97751 2.3585-1.9796 3.0427-3.006 0.65982-0.95307 1.1851-2.065 1.5761-3.3357 0.39101-1.2708 0.58653-2.4439 0.58653-3.5192 0-2.4438-1.0874-4.521-3.2623-6.2317-2.1505-1.7351-4.7408-2.6024-7.7711-2.6024zm-70.809 20.966c0.44127 0 0.86014 0.2207 1.2573 0.66198s0.97067 1.3126 1.7208 2.6143c1.6548 2.8462 2.4825 4.6333 2.4825 5.3614 0 0.52952-0.59605 0.79427-1.7875 0.79427h-6.4864c-1.0149 0-1.5224-0.27575-1.5224-0.82734 0-0.44127 0.46344-1.787 1.3901-4.0375 0.55159-1.3679 0.87133-2.1512 0.95963-2.3497 0.52953-1.4783 1.1916-2.2174 1.9859-2.2174zm-8.4853 31.506c-0.57454 0-1.0504 0.07922-1.4268 0.23771-0.35661 0.15849-0.71309 0.42611-1.0697 0.80253-0.6934 0.69341-1.3175 1.7634-1.8722 3.2096-0.53491 1.4264-0.80253 2.6843-0.80253 3.7739 0 2.1793 0.93135 3.2985 2.7936 3.3579h0.0894c0.29576 0 1.318-0.2435 2.5538-0.59014l11.342-2.5316-11.599 33.162h5.8281c2.2969 0 4.0388-0.72757 5.2255-2.1823l17.715-21.39-7.0631 18.232c-0.34454 0.86135-0.51677 1.6652-0.51677 2.4117 0 1.9332 1.0911 3.0244 3.2732 3.2732 0.38282 0.0574 0.74686 0.08578 1.0914 0.08578 1.8184 0 3.4932-0.85183 5.0245-2.5554l14.241-15.619-4.7661 12.404c-0.40197 1.0528-0.60307 1.9041-0.60307 2.5549 0 1.8567 1.6078 2.7854 4.8235 2.7854h10.307c0.32917 0 0.64553-0.01061 0.95498-0.02688 0.32849 0.01763 0.66484 0.02688 1.0108 0.02688h6.8678v-8.3964h-5.8772c-1.019 0-1.6935-0.09351-2.0236-0.28009-0.33011-0.20094-0.49558-0.60962-0.49558-1.2268 0-0.5454 0.15812-0.93308 0.47388-1.1627 0.33011-0.22964 0.88273-0.34468 1.6578-0.34468h5.7051v-6.5448h-4.8224c-0.91857 0-1.5573-0.10768-1.9162-0.32298-0.35882-0.22964-0.53795-0.63149-0.53795-1.2056 0-0.97598 0.75329-1.464 2.2603-1.464h5.5759v-8.4393h-7.5995c-0.11402 0-0.22696 0.00127-0.339 0.00362-0.02455-0.00108-0.03319-0.00362-0.06977-0.00362-1.6844-0.01914-5.159 0.14516-6.0508 0.67541-0.52493 0.31212-1.56 1.2731-3.1295 2.8427l-11.054 11.111 5.5702-14.471c0.42111-1.0528 0.63149-2 0.63149-2.8422 0-1.359-0.52596-2.3831-1.5787-3.0722-0.68908-0.44024-1.3496-0.66042-1.9813-0.66042-2.2204 0-4.0292 0.44036-5.4265 1.3208-0.84221 0.53596-2.0483 1.7034-3.6179 3.5026l-12.346 13.983 6.1733-17.801c0.36368-1.0528 0.54519-1.952 0.54519-2.6986 0-1.9333-1.3243-2.7592-3.962-2.9001l-18.632-0.99529c-0.17497-0.01936-0.35964-0.02945-0.55552-0.02945zm-39.559 0.45268 0.65681 16.52 3.7553-0.39377 4.1501-0.15762c0.19261 2.5039 0.3763 5.0687 0.55139 7.6951 0.38521 7.5816 0.64798 13.141 0.78806 16.678h12.712c0.43774-7.424 0.75256-13.053 0.94516-16.888 0.26265-3.9572 0.44685-6.4523 0.55191-7.4853 2.0836 0.05253 3.5896 0.10508 4.5176 0.15762 1.5058 0.15758 2.6001 0.28871 3.283 0.39377l0.76171-16.52h-32.673zm37.687 12.266c-1.0896 0-1.9418 0.38645-2.5559 1.1591-1.5453 1.8425-2.9322 4.8239-4.1605 8.9447-1.2085 4.101-1.8128 7.7862-1.8128 11.055 0 1.4661 0.14879 2.6645 0.44597 3.5956 0.31698 0.91133 0.84208 1.7629 1.5751 2.5554 0.73303 0.75284 1.545 1.1591 2.4365 1.2185h0.05943c0.6934 0 1.2977-0.15844 1.8128-0.47542 0.75283-0.5151 1.3871-1.5059 1.9022-2.9719 1.3076-3.6453 2.3176-7.1518 3.0308-10.52 0.73303-3.3878 1.0997-6.3397 1.0997-8.8558 0-1.7038-0.3565-3.0805-1.0697-4.1305-0.6934-1.05-1.6146-1.5751-2.7636-1.5751zm80.049 16.792c-2.2762 0-4.5625 0.40597-6.8585 1.2175-2.7315 0.98966-4.0974 2.2264-4.0974 3.7109 0 1.2866 0.59421 2.4053 1.7818 3.3554 1.2074 0.95007 2.7611 1.4247 4.6612 1.4247 0.73235 0 1.5438-0.07886 2.4345-0.2372 2.3158-0.41566 4.4932-1.1086 6.5319-2.0784 2.4148-1.1678 3.622-2.316 3.622-3.4442 0-1.049-0.70256-1.9495-2.1079-2.7016-1.5241-0.83132-3.5132-1.247-5.9676-1.247z" fill="#fff" stroke-width="5.8878"/></g></svg>
